<svg width="125" height="61" viewBox="0 0 125 61" fill="none" xmlns="http://www.w3.org/2000/svg">
<path fill-rule="evenodd" clip-rule="evenodd" d="M61.8759 4.52535C61.8759 9.49272 62.2978 10.7516 62.6245 6.75845C62.7331 5.42814 62.9025 3.41161 63.0005 2.27727C63.165 0.371833 63.1288 0.201137 62.5271 0.0438583C61.8884 -0.123094 61.8759 -0.0379014 61.8759 4.52535ZM54.7294 1.97364C54.3836 2.1927 54.8008 3.03714 56.7328 6.02574C58.8592 9.31516 59.6915 10.3237 59.6915 9.6113C59.6915 9.26336 55.5398 1.68748 55.3519 1.69216C55.2499 1.69497 54.97 1.82166 54.7294 1.97364ZM67.0455 5.48743C65.9186 7.57761 64.9965 9.40316 64.9965 9.54421C64.9965 10.2822 65.6864 9.45652 67.8465 6.13277C69.5635 3.49119 70.1411 2.35872 69.9148 2.07755C69.7423 1.86317 69.487 1.68748 69.3478 1.68748C69.2087 1.68748 68.1726 3.39757 67.0455 5.48743ZM56.6008 12.3802C55.4646 12.9641 54.6873 14.2051 54.447 15.8191L54.2304 17.2724L42.756 26.7993L31.2818 36.3261H21.8267C11.0007 36.3261 10.1419 36.4628 7.51534 38.6039C3.60679 41.7903 0.769852 48.5938 0.175378 56.2072L0 58.4568L1.105 59.5618C2.14697 60.6038 2.32734 60.6668 4.26961 60.6668C6.12106 60.6668 6.3292 60.6038 6.3292 60.0427C6.3292 59.6283 6.53735 59.4186 6.94802 59.4186C7.54748 59.4186 7.56964 59.1596 7.65015 51.227L7.73347 43.0354L21.2294 42.8794L34.7251 42.7234L47.7811 31.8818C54.9622 25.9189 61.0009 20.6813 61.2006 20.2429C61.7417 19.0555 61.6615 14.9516 61.0751 13.8179C60.5958 12.8914 59.018 11.9808 57.9071 11.9901C57.6013 11.9926 57.0134 12.168 56.6008 12.3802ZM65.4068 12.4423C64.8601 12.6801 64.1929 13.2995 63.9245 13.8188C63.3401 14.9488 63.2583 19.0549 63.7966 20.2363C63.9948 20.6713 70.0394 25.9089 77.2289 31.8752L90.3011 42.7234L103.784 42.8794L117.267 43.0354L117.35 51.227C117.43 59.1596 117.453 59.4186 118.052 59.4186C118.463 59.4186 118.671 59.6283 118.671 60.0427C118.671 60.6038 118.879 60.6668 120.73 60.6668C122.673 60.6668 122.853 60.6038 123.895 59.5618L125 58.4568L124.825 56.2072C124.234 48.6353 121.374 41.7744 117.49 38.6079C114.858 36.4628 114.002 36.3261 103.187 36.3261H93.7462L84.2865 28.4669C79.0835 24.1443 73.8783 19.8313 72.72 18.8823C71.0261 17.4946 70.6136 16.9847 70.6136 16.2775C70.6136 14.8533 69.79 13.2933 68.6819 12.6177C67.4786 11.884 66.7768 11.8463 65.4068 12.4423ZM18.903 14.2913C15.007 15.5639 12.2006 19.3959 12.1469 23.5164C12.0945 27.5626 14.2115 31.0314 17.8121 32.7999C20.1297 33.9379 23.7524 34.0191 26.0439 32.984C32.1918 30.2069 33.9546 22.2248 29.5112 17.2824C27.5081 15.0543 25.4944 14.0937 22.5563 13.9652C21.1383 13.9031 19.6985 14.0316 18.903 14.2913ZM100.259 14.1312C98.7972 14.6121 96.9842 15.6678 96.2262 16.4801L95.4694 17.2905H96.4181C97.4841 17.2905 98.8743 18.2404 99.1695 19.171C99.4161 19.9477 101.424 20.0553 101.711 19.3073C101.972 18.628 103.483 17.9146 104.661 17.9146C105.428 17.9146 105.948 18.217 106.895 19.2118C108.049 20.4245 108.27 20.5219 110.279 20.7063C111.462 20.8146 112.43 20.7871 112.43 20.6448C112.43 19.9842 111.108 17.9149 109.941 16.7478C108.045 14.852 106.226 14.0784 103.402 13.9677C102.103 13.9165 100.688 13.9901 100.259 14.1312ZM95.0185 18.2416C94.0567 18.6273 93.3044 20.4466 93.6882 21.4568C94.3651 23.2371 96.62 23.7667 97.9329 22.4535C99.0067 21.38 98.9508 19.9907 97.7868 18.8267C96.8406 17.8806 96.2362 17.7526 95.0185 18.2416ZM102.586 19.6169C100.5 21.7027 103.21 24.9587 105.854 23.5435C106.804 23.0349 107.267 21.5089 106.808 20.3992C106.092 18.6713 103.931 18.271 102.586 19.6169ZM99.2185 21.9399C98.2655 24.0996 95.7984 24.6869 93.9116 23.2031C93.1767 22.6248 93.1471 22.6242 93.0011 23.1831C92.7424 24.1726 93.3091 26.8174 94.1248 28.4276C95.0572 30.2672 96.9911 32.0921 98.9729 33.0021C101.223 34.035 104.855 33.9454 107.188 32.7999C109.444 31.692 111.584 29.3475 112.309 27.189C112.838 25.6147 113.088 22.5272 112.716 22.1546C112.616 22.0544 111.458 21.8812 110.142 21.7701C107.995 21.5885 107.749 21.6237 107.749 22.1127C107.749 22.4126 107.271 23.1354 106.688 23.7189C105.903 24.5041 105.355 24.7796 104.581 24.7787C103.04 24.7771 101.641 23.7919 101.182 22.3855C100.83 21.3042 100.404 20.7409 99.9291 20.7278C99.8336 20.7253 99.5137 21.2708 99.2185 21.9399ZM28.6858 27.0901C27.2687 28.9478 26.0526 29.6168 24.0929 29.6168C22.5878 29.6168 22.1566 29.4692 20.9037 28.5246C20.107 27.9239 19.4507 27.3269 19.4454 27.1984C19.4401 27.0698 20.8749 26.9559 22.6343 26.9453C24.7944 26.9325 26.3903 26.7468 27.5493 26.3736C28.4933 26.0697 29.3202 25.8637 29.387 25.9161C29.4541 25.9686 29.1383 26.4966 28.6858 27.0901ZM105.453 27.0901C103.012 30.29 99.5805 30.612 96.9689 27.8862L96.0858 26.9643L99.3427 26.9453C101.559 26.9322 103.148 26.7496 104.316 26.3736C105.26 26.0697 106.087 25.8637 106.154 25.9161C106.221 25.9686 105.905 26.4966 105.453 27.0901ZM9.13774 51.9291V59.4186H22.0882H35.0387V51.9291V44.4397H22.0882H9.13774V51.9291ZM89.9613 51.9291V59.4186H102.912H115.862V51.9291V44.4397H102.912H89.9613V51.9291ZM22.8559 52.0702C23.5056 52.8531 23.1196 53.6455 22.0882 53.6455C21.4435 53.6455 21.1277 53.4745 21.0525 53.0844C20.9286 52.4409 21.5103 51.6171 22.0882 51.6171C22.3035 51.6171 22.649 51.8209 22.8559 52.0702ZM103.679 52.0702C104.329 52.8531 103.943 53.6455 102.912 53.6455C102.267 53.6455 101.951 53.4745 101.876 53.0844C101.752 52.4409 102.334 51.6171 102.912 51.6171C103.127 51.6171 103.473 51.8209 103.679 52.0702Z" fill="#EDA575"/>
</svg>
